<?xml version="1.0" standalone="no"?><!DOCTYPE svg PUBLIC "-//W3C//DTD SVG 1.1//EN" "http://www.w3.org/Graphics/SVG/1.1/DTD/svg11.dtd"><svg t="1606048988903" class="icon" viewBox="0 0 1024 1024" version="1.1" xmlns="http://www.w3.org/2000/svg" p-id="5219" xmlns:xlink="http://www.w3.org/1999/xlink" width="200" height="200"><defs><style type="text/css"></style></defs><path d="M672 192H96a32 32 0 0 0 0 64h576a32 32 0 0 0 0-64zM96 544h448a32 32 0 0 0 0-64H96a32 32 0 0 0 0 64zM672 768H96a32 32 0 0 0 0 64h576a32 32 0 0 0 0-64zM950.52 649.48a32 32 0 0 0-45.25 0L832 722.75V224a32 32 0 0 0-64 0v576a32 32 0 0 0 31.74 32h0.52a32.07 32.07 0 0 0 22.36-9.33l127.9-127.89a32 32 0 0 0 0-45.3z" p-id="5220" fill="#1296db"></path></svg>