<?xml version="1.0" standalone="no"?><!DOCTYPE svg PUBLIC "-//W3C//DTD SVG 1.1//EN" "http://www.w3.org/Graphics/SVG/1.1/DTD/svg11.dtd"><svg t="1606048826145" class="icon" viewBox="0 0 1024 1024" version="1.1" xmlns="http://www.w3.org/2000/svg" p-id="2649" xmlns:xlink="http://www.w3.org/1999/xlink" width="200" height="200"><defs><style type="text/css"></style></defs><path d="M512 64C264.58 64 64 264.57 64 512s200.58 448 448 448 448-200.58 448-448S759.42 64 512 64z m149 470.7c-0.14 0.14-0.32 0.17-0.45 0.31L480 715.57a32 32 0 0 1-45.25-45.25L593.07 512 434.76 353.68A32 32 0 0 1 480 308.43L660.58 489c0.13 0.12 0.31 0.17 0.45 0.29a32.24 32.24 0 0 1 0 45.41z" p-id="2650" fill="#1296db"></path></svg>