<?xml version="1.0" standalone="no"?><!DOCTYPE svg PUBLIC "-//W3C//DTD SVG 1.1//EN" "http://www.w3.org/Graphics/SVG/1.1/DTD/svg11.dtd"><svg t="1606048884887" class="icon" viewBox="0 0 1024 1024" version="1.1" xmlns="http://www.w3.org/2000/svg" p-id="3759" xmlns:xlink="http://www.w3.org/1999/xlink" width="200" height="200"><defs><style type="text/css"></style></defs><path d="M512 64C264.58 64 64 264.58 64 512s200.58 448 448 448 448-200.57 448-448S759.42 64 512 64zM230.78 772.6a390.56 390.56 0 0 0 57.4 50.8 386.74 386.74 0 0 1-57.4-50.8z m240.9 121.24a379 379 0 0 0 80.34 0 379 379 0 0 1-80.34 0zM289 824c9.85 7.09 20.1 13.66 30.61 19.81Q303.77 834.59 289 824z m33 21.26c9.86 5.67 20.08 10.79 30.47 15.59-10.41-4.78-20.59-9.94-30.47-15.59z m35.15 17.85c9.68 4.31 19.67 8 29.75 11.55-10.1-3.5-20.05-7.26-29.75-11.55zM394 877.27c9.49 3.09 19.23 5.56 29 7.91-9.77-2.34-19.5-4.84-29-7.91z m38.27 10.29c9.68 2.07 19.59 3.46 29.53 4.77-9.93-1.33-19.8-2.72-29.52-4.77z m269.29-42a388.65 388.65 0 0 0 88.95-69.94A285.5 285.5 0 0 0 676 598.08c-41 45-99.87 73.49-165.55 73.49s-124.57-28.45-165.55-73.49a285.37 285.37 0 0 0-114.08 174.5C167.21 704 128 612.62 128 512c0-211.74 172.26-384 384-384s384 172.26 384 384c0 142.78-78.49 267.36-194.43 333.52z m-140.21 46.9c10-1.3 20-2.68 29.76-4.74-9.76 2.05-19.74 3.44-29.76 4.74z m38-6.88c10-2.36 20-4.84 29.63-8-9.65 3.15-19.58 5.66-29.59 8zM635 875.43c10.34-3.53 20.58-7.3 30.5-11.67-9.94 4.35-20.15 8.15-30.5 11.67z m34-13.35c10.66-4.83 21.13-10 31.25-15.75-10.14 5.72-20.57 10.93-31.25 15.75z" p-id="3760" fill="#1296db"></path><path d="M512 448m-160 0a160 160 0 1 0 320 0 160 160 0 1 0-320 0Z" p-id="3761" fill="#1296db"></path></svg>