<?xml version="1.0" standalone="no"?><!DOCTYPE svg PUBLIC "-//W3C//DTD SVG 1.1//EN" "http://www.w3.org/Graphics/SVG/1.1/DTD/svg11.dtd"><svg t="1606048976545" class="icon" viewBox="0 0 1024 1024" version="1.1" xmlns="http://www.w3.org/2000/svg" p-id="4856" xmlns:xlink="http://www.w3.org/1999/xlink" width="200" height="200"><defs><style type="text/css"></style></defs><path d="M896 128H128a64 64 0 0 0-64 64v576a64 64 0 0 0 64 64h109.33l13.19 69.92a32 32 0 0 0 42.81 24l247-93.89H896a64 64 0 0 0 64-64V192a64 64 0 0 0-64-64zM512 416a64 64 0 1 1-64 64 64 64 0 0 1 64-64z m-320 64a64 64 0 1 1 64 64 64 64 0 0 1-64-64z m576 64a64 64 0 1 1 64-64 64 64 0 0 1-64 64z" p-id="4857" fill="#1296db"></path></svg>