<?xml version="1.0" standalone="no"?><!DOCTYPE svg PUBLIC "-//W3C//DTD SVG 1.1//EN" "http://www.w3.org/Graphics/SVG/1.1/DTD/svg11.dtd"><svg t="1606048834028" class="icon" viewBox="0 0 1024 1024" version="1.1" xmlns="http://www.w3.org/2000/svg" p-id="2834" xmlns:xlink="http://www.w3.org/1999/xlink" width="200" height="200"><defs><style type="text/css"></style></defs><path d="M512 64C264.58 64 64 264.57 64 512s200.58 448 448 448 448-200.58 448-448S759.42 64 512 64z m192 480H397.25L501 647.76A32 32 0 0 1 455.77 693l-158.4-158.38a32.11 32.11 0 0 1-9.32-22.36c0-0.09-0.05-0.17-0.05-0.26s0.05-0.18 0.05-0.27a32.11 32.11 0 0 1 9.32-22.36L455.77 331A32 32 0 0 1 501 376.23L397.25 480H704a32 32 0 0 1 0 64z" p-id="2835" fill="#1296db"></path></svg>