<?xml version="1.0" standalone="no"?><!DOCTYPE svg PUBLIC "-//W3C//DTD SVG 1.1//EN" "http://www.w3.org/Graphics/SVG/1.1/DTD/svg11.dtd"><svg t="1606048981247" class="icon" viewBox="0 0 1024 1024" version="1.1" xmlns="http://www.w3.org/2000/svg" p-id="5037" xmlns:xlink="http://www.w3.org/1999/xlink" width="200" height="200"><defs><style type="text/css"></style></defs><path d="M896 224H768v-64a64 64 0 0 0-64-64H320a64 64 0 0 0-64 64v64H128a64 64 0 0 0-64 64v384a64 64 0 0 0 64 64h64v-64h-64V288h768v384h-64v-64a64 64 0 0 0-64-64H256a64 64 0 0 0-64 64v256a64 64 0 0 0 64 64h512a64 64 0 0 0 64-64V736h64a64 64 0 0 0 64-64V288a64 64 0 0 0-64-64z m-576 0v-64h384v64z m448 640H256V608h512z" p-id="5038" fill="#1296db"></path><path d="M768 384m-48 0a48 48 0 1 0 96 0 48 48 0 1 0-96 0Z" p-id="5039" fill="#1296db"></path></svg>