<?xml version="1.0" standalone="no"?><!DOCTYPE svg PUBLIC "-//W3C//DTD SVG 1.1//EN" "http://www.w3.org/Graphics/SVG/1.1/DTD/svg11.dtd"><svg t="1606049031657" class="icon" viewBox="0 0 1024 1024" version="1.1" xmlns="http://www.w3.org/2000/svg" p-id="5756" xmlns:xlink="http://www.w3.org/1999/xlink" width="200" height="200"><defs><style type="text/css"></style></defs><path d="M512 64C264.58 64 64 264.57 64 512s200.58 448 448 448 448-200.58 448-448S759.42 64 512 64z m214.63 470.62L568.24 693A32 32 0 0 1 523 647.76L626.75 544H320a32 32 0 0 1 0-64h306.75L523 376.23A32 32 0 0 1 568.24 331l158.39 158.37c0.06 0.06 0.07 0.14 0.13 0.19a31.94 31.94 0 0 1 6.77 34.67 31.79 31.79 0 0 1-6.77 10.2c-0.06 0.07-0.07 0.14-0.13 0.19z" p-id="5757" fill="#1296db"></path></svg>