<?xml version="1.0" standalone="no"?><!DOCTYPE svg PUBLIC "-//W3C//DTD SVG 1.1//EN" "http://www.w3.org/Graphics/SVG/1.1/DTD/svg11.dtd"><svg t="1606048878455" class="icon" viewBox="0 0 1024 1024" version="1.1" xmlns="http://www.w3.org/2000/svg" p-id="3574" xmlns:xlink="http://www.w3.org/1999/xlink" width="200" height="200"><defs><style type="text/css"></style></defs><path d="M553.92 107.23l120.43 200.11a32 32 0 0 0 20.2 14.66l227.52 52.69C958 383 972.16 426.6 948 454.45L794.88 630.82a32 32 0 0 0-7.71 23.75l20.19 232.67c3.19 36.74-33.87 63.67-67.83 49.28l-215-91.1a32 32 0 0 0-25 0l-215 91.1c-34 14.39-71-12.54-67.83-49.28l20.19-232.67a32 32 0 0 0-7.71-23.75L76 454.45C51.84 426.6 66 383 101.93 374.71L329.45 322a32 32 0 0 0 20.2-14.68l120.43-200.09c19.01-31.6 64.83-31.6 83.84 0z" p-id="3575" fill="#1296db"></path></svg>