<?xml version="1.0" standalone="no"?><!DOCTYPE svg PUBLIC "-//W3C//DTD SVG 1.1//EN" "http://www.w3.org/Graphics/SVG/1.1/DTD/svg11.dtd"><svg t="1606048969959" class="icon" viewBox="0 0 1024 1024" version="1.1" xmlns="http://www.w3.org/2000/svg" p-id="4679" xmlns:xlink="http://www.w3.org/1999/xlink" width="200" height="200"><defs><style type="text/css"></style></defs><path d="M255.59 419.19H128.41c-18.82 0-33.66 16.78-32.33 36.48l27.78 408.7c1.2 17.82 15.31 31.63 32.31 31.63h99.42c17.91 0 32.41-15.25 32.41-34.06V453.25c0-18.81-14.5-34.06-32.41-34.06zM224 832h-38.19l-23.72-348.81H224zM862.53 419.19H630.36l22.17-136.85A126.86 126.86 0 0 0 590.16 152l-34.46-19.73a32.11 32.11 0 0 0-43.7 11.64L352 419.19v408.7c0 37.61 29.31 68.11 65.45 68.11h369.94c48.86 0 90.3-37.39 97.2-87.72l42.74-311.34c5.67-41.03-24.97-77.75-64.8-77.75z m-41.34 380.39c-2.53 18.48-17.07 32.42-33.8 32.42l-369.62 0.08c-0.35-0.17-1.77-1.46-1.77-4.19V436.44l135.34-232.89 7 4a63.28 63.28 0 0 1 31.05 64.58L567.19 409a64 64 0 0 0 63.17 74.24l231.86-0.1s2.2 1.53 1.7 5.14z" p-id="4680" fill="#1296db"></path></svg>