<svg id="svg" version="1.1" xmlns="http://www.w3.org/2000/svg" xmlns:xlink="http://www.w3.org/1999/xlink" width="400" height="353.76146788990826" viewBox="0, 0, 400,353.76146788990826"><g id="svgg"><path id="path0" d="M399.292 176.637 L 399.292 353.274 199.646 353.274 C 66.785 353.274,0.000 353.393,0.000 353.628 C 0.000 353.864,66.903 353.982,200.000 353.982 L 400.000 353.982 400.000 176.991 C 400.000 59.233,399.882 0.000,399.646 0.000 C 399.411 0.000,399.292 59.115,399.292 176.637 M70.004 33.805 L 69.912 63.009 102.035 63.009 L 134.159 63.009 134.159 33.805 L 134.159 4.602 102.128 4.602 L 70.097 4.602 70.004 33.805 M265.487 34.159 L 265.487 63.717 297.522 63.717 L 329.558 63.717 329.558 34.159 L 329.558 4.602 297.522 4.602 L 265.487 4.602 265.487 34.159 M330.619 92.389 L 330.619 120.708 363.363 120.708 L 396.106 120.708 396.106 92.389 L 396.106 64.071 363.363 64.071 L 330.619 64.071 330.619 92.389 M201.062 92.920 L 201.062 121.062 233.274 121.062 L 265.487 121.062 265.487 92.920 L 265.487 64.779 233.274 64.779 L 201.062 64.779 201.062 92.920 M102.389 121.327 L 70.088 121.420 70.088 149.382 L 70.088 177.345 102.478 177.345 L 134.867 177.345 134.867 149.204 C 134.867 133.726,134.827 121.101,134.779 121.149 C 134.730 121.196,120.155 121.277,102.389 121.327 M331.209 179.351 C 330.638 179.922,330.949 234.179,331.530 235.344 L 332.087 236.460 364.097 236.460 L 396.106 236.460 396.106 207.788 L 396.106 179.115 363.776 179.115 C 345.994 179.115,331.339 179.221,331.209 179.351 M70.796 264.248 L 70.796 293.097 103.363 293.097 L 135.929 293.097 135.929 321.239 L 135.929 349.381 168.850 349.381 L 201.770 349.381 201.770 321.062 L 201.770 292.743 168.879 292.743 C 150.788 292.743,135.735 292.647,135.427 292.528 C 134.923 292.335,134.867 289.479,134.867 263.856 L 134.867 235.398 102.832 235.398 L 70.796 235.398 70.796 264.248 M233.717 235.664 L 202.124 235.756 202.124 264.071 L 202.124 292.386 233.539 292.476 C 261.170 292.555,264.959 292.630,264.990 293.097 C 265.009 293.389,265.049 306.173,265.079 321.504 L 265.133 349.381 297.522 349.381 L 329.912 349.381 329.912 322.168 C 329.912 307.201,330.003 294.498,330.115 293.938 L 330.319 292.920 297.895 293.014 L 265.471 293.108 265.567 264.253 C 265.620 248.383,265.584 235.437,265.487 235.485 C 265.389 235.532,251.093 235.613,233.717 235.664 M3.894 320.529 L 3.894 349.381 36.816 349.381 L 69.739 349.381 69.648 320.619 L 69.558 291.858 36.726 291.768 L 3.894 291.678 3.894 320.529 " stroke="none" fill="#f6f6f6" fill-rule="evenodd"></path><path id="path1" d="M69.898 4.688 C 69.805 4.933,69.771 18.115,69.822 33.982 L 69.916 62.832 70.002 33.717 L 70.088 4.602 102.124 4.602 L 134.159 4.602 134.159 33.762 L 134.159 62.922 69.381 63.187 L 4.602 63.452 4.602 92.257 L 4.602 121.062 37.168 121.062 L 69.735 121.062 69.735 149.379 L 69.735 177.695 37.611 177.786 L 5.487 177.876 5.396 206.462 L 5.306 235.048 37.432 234.958 L 69.558 234.867 69.648 206.281 L 69.739 177.695 102.391 177.786 L 135.044 177.876 135.135 206.460 L 135.225 235.044 102.834 235.044 L 70.442 235.044 70.442 264.800 C 70.442 284.546,70.323 294.481,70.088 294.336 C 69.854 294.191,69.735 303.418,69.735 321.749 L 69.735 349.381 36.814 349.381 L 3.894 349.381 3.894 320.527 L 3.894 291.674 36.797 291.766 C 54.893 291.817,69.579 291.738,69.432 291.591 C 69.285 291.444,54.439 291.364,36.441 291.414 L 3.717 291.504 3.717 320.531 L 3.717 349.558 166.991 349.577 L 330.265 349.597 330.179 321.790 L 330.093 293.982 330.000 321.681 L 329.907 349.381 297.520 349.381 L 265.133 349.381 265.079 321.504 C 265.049 306.173,265.009 293.389,264.990 293.097 C 264.959 292.630,261.170 292.555,233.539 292.476 L 202.124 292.386 202.039 263.980 L 201.953 235.575 201.773 263.894 L 201.593 292.212 168.496 292.212 L 135.398 292.212 135.308 263.630 L 135.217 235.048 168.051 234.958 L 200.885 234.867 200.976 206.637 L 201.066 178.407 233.232 178.407 L 265.399 178.407 265.663 121.629 C 265.808 90.402,265.819 64.677,265.687 64.463 C 265.514 64.182,274.369 64.049,297.591 63.982 L 329.735 63.890 297.611 63.803 L 265.487 63.717 265.487 34.159 L 265.487 4.602 297.581 4.602 C 315.233 4.602,329.576 4.503,329.455 4.381 C 329.334 4.260,300.396 4.280,265.148 4.426 L 201.062 4.691 201.062 34.735 L 201.062 64.779 167.788 64.779 L 134.513 64.779 134.513 92.920 L 134.513 121.062 102.124 121.062 L 69.735 121.062 69.735 92.214 L 69.735 63.367 102.035 63.276 L 134.336 63.186 134.336 33.805 L 134.336 4.425 102.202 4.334 C 76.682 4.263,70.033 4.335,69.898 4.688 M330.178 121.149 L 330.088 178.584 297.965 178.674 L 265.841 178.765 265.841 206.739 C 265.841 231.278,265.776 234.738,265.310 234.916 C 265.018 235.028,264.779 235.257,264.779 235.425 C 264.779 235.593,264.978 235.654,265.221 235.560 C 265.573 235.425,265.644 241.275,265.567 264.244 C 265.514 280.113,265.594 293.097,265.744 293.097 C 265.895 293.097,265.976 280.355,265.925 264.781 L 265.832 236.464 298.929 236.373 L 332.026 236.283 331.497 235.265 C 331.040 234.384,330.981 230.561,331.060 206.770 L 331.150 179.292 363.626 179.202 L 396.102 179.111 396.193 207.874 C 396.242 223.694,396.283 197.770,396.283 150.265 L 396.283 63.894 363.275 63.803 L 330.268 63.713 330.178 121.149 M396.106 92.389 L 396.106 120.708 363.363 120.708 L 330.619 120.708 330.619 92.389 L 330.619 64.071 363.363 64.071 L 396.106 64.071 396.106 92.389 M265.487 92.920 L 265.487 121.062 233.274 121.062 L 201.062 121.062 201.062 92.920 L 201.062 64.779 233.274 64.779 L 265.487 64.779 265.487 92.920 M134.867 149.204 L 134.867 177.345 102.478 177.345 L 70.088 177.345 70.088 149.382 L 70.088 121.420 102.389 121.327 C 120.155 121.277,134.730 121.196,134.779 121.149 C 134.827 121.101,134.867 133.726,134.867 149.204 M200.354 149.027 L 200.354 176.991 167.788 176.991 L 135.221 176.991 135.221 149.027 L 135.221 121.062 167.788 121.062 L 200.354 121.062 200.354 149.027 M134.867 263.856 C 134.867 289.479,134.923 292.335,135.427 292.528 C 135.735 292.647,150.788 292.743,168.879 292.743 L 201.770 292.743 201.770 321.062 L 201.770 349.381 168.850 349.381 L 135.929 349.381 135.929 321.239 L 135.929 293.097 103.363 293.097 L 70.796 293.097 70.796 264.248 L 70.796 235.398 102.832 235.398 L 134.867 235.398 134.867 263.856 " stroke="none" fill="#c4c4c4" fill-rule="evenodd"></path><path id="path2" d="M0.000 176.460 L 0.000 352.920 199.469 352.920 L 398.938 352.920 398.938 176.460 L 398.938 0.000 199.469 0.000 L 0.000 0.000 0.000 176.460 M134.513 33.805 L 134.513 63.363 102.124 63.363 L 69.735 63.363 69.735 92.212 L 69.735 121.062 101.945 121.062 L 134.155 121.062 134.246 92.832 L 134.336 64.602 167.697 64.511 L 201.058 64.421 201.148 34.423 L 201.239 4.425 265.487 4.425 L 329.735 4.425 329.735 34.159 L 329.735 63.894 297.788 63.984 L 265.841 64.075 265.841 121.241 L 265.841 178.407 298.053 178.407 L 330.265 178.407 330.265 121.062 L 330.265 63.717 363.364 63.717 L 396.462 63.717 396.372 150.177 L 396.283 236.637 331.062 236.505 L 265.841 236.373 265.841 264.558 L 265.841 292.743 297.670 292.743 C 322.810 292.743,329.533 292.650,329.661 292.301 C 330.500 290.011,330.619 293.937,330.533 321.082 L 330.442 349.558 166.989 349.646 L 3.536 349.735 3.626 320.620 L 3.717 291.504 36.814 291.504 L 69.912 291.504 70.088 293.097 C 70.186 293.973,70.345 281.230,70.442 264.779 L 70.619 234.867 102.743 234.777 L 134.867 234.687 134.867 206.370 L 134.867 178.053 102.301 178.053 L 69.735 178.053 69.735 206.551 L 69.735 235.048 37.434 234.958 L 5.133 234.867 5.133 206.372 L 5.133 177.876 37.257 177.786 L 69.381 177.695 69.381 149.558 L 69.381 121.420 36.903 121.329 L 4.425 121.239 4.425 92.212 L 4.425 63.186 36.903 63.095 L 69.381 63.005 69.381 33.862 C 69.381 17.834,69.487 4.614,69.617 4.484 C 69.746 4.354,84.401 4.248,102.183 4.248 L 134.513 4.248 134.513 33.805 M135.221 149.204 L 135.221 176.991 167.788 176.991 L 200.354 176.991 200.354 149.204 L 200.354 121.416 167.788 121.416 L 135.221 121.416 135.221 149.204 M201.298 178.643 C 201.168 178.773,201.062 191.516,201.062 206.962 L 201.062 235.044 168.142 235.044 L 135.221 235.044 135.221 263.540 L 135.221 292.035 168.493 292.035 L 201.766 292.035 201.856 263.805 L 201.947 235.575 233.240 235.485 C 255.646 235.420,264.669 235.282,265.010 234.999 C 265.402 234.674,265.487 229.620,265.487 206.505 L 265.487 178.407 233.510 178.407 C 215.923 178.407,201.428 178.513,201.298 178.643 " stroke="none" fill="#7c7c7c" fill-rule="evenodd"></path><path id="path3" d="" stroke="none" fill="#cca0e4" fill-rule="evenodd"></path><path id="path4" d="M399.026 176.371 L 398.938 352.920 199.381 353.009 L -0.177 353.098 199.392 353.186 C 358.786 353.257,398.994 353.185,399.128 352.832 C 399.221 352.588,399.255 273.062,399.205 176.106 L 399.114 -0.177 399.026 176.371 M69.617 4.484 C 69.487 4.614,69.381 17.834,69.381 33.862 L 69.381 63.005 36.903 63.095 L 4.425 63.186 4.425 92.212 L 4.425 121.239 36.901 121.329 L 69.376 121.420 69.467 149.648 L 69.558 177.876 102.212 177.966 L 134.867 178.057 134.867 206.372 L 134.867 234.687 102.743 234.779 L 70.619 234.871 102.922 234.958 L 135.225 235.044 135.135 206.460 L 135.044 177.876 102.389 177.786 L 69.735 177.695 69.735 149.379 L 69.735 121.062 37.168 121.062 L 4.602 121.062 4.602 92.212 L 4.602 63.363 37.164 63.363 L 69.726 63.363 69.819 33.805 C 69.870 17.549,69.898 4.248,69.882 4.248 C 69.866 4.248,69.746 4.354,69.617 4.484 M217.230 4.513 C 226.025 4.566,240.521 4.566,249.442 4.513 C 258.364 4.461,251.168 4.417,233.451 4.417 C 215.735 4.417,208.435 4.460,217.230 4.513 M329.727 34.159 C 329.727 50.513,329.770 57.152,329.823 48.912 C 329.876 40.671,329.876 27.291,329.823 19.177 C 329.770 11.063,329.727 17.805,329.727 34.159 M134.322 64.867 C 134.229 65.111,134.195 77.894,134.247 93.274 L 134.341 121.239 134.427 93.011 L 134.513 64.782 167.876 64.690 L 201.239 64.598 167.865 64.511 C 141.428 64.443,134.456 64.517,134.322 64.867 M396.275 149.735 C 396.275 165.796,396.319 172.367,396.372 164.336 C 396.425 156.305,396.425 143.164,396.372 135.133 C 396.319 127.102,396.275 133.673,396.275 149.735 M151.416 121.327 C 160.420 121.380,175.155 121.380,184.159 121.327 C 193.164 121.275,185.796 121.232,167.788 121.232 C 149.779 121.232,142.412 121.275,151.416 121.327 M265.486 178.108 C 265.389 209.386,265.429 234.903,265.575 234.813 C 265.721 234.722,265.841 222.075,265.841 206.707 L 265.841 178.765 297.965 178.673 L 330.088 178.580 297.967 178.494 L 265.845 178.407 265.753 149.823 C 265.691 130.519,265.605 139.701,265.486 178.108 M5.119 178.142 C 5.026 178.385,4.991 191.248,5.041 206.726 L 5.133 234.867 5.310 206.283 C 5.407 190.562,5.442 177.699,5.387 177.699 C 5.332 177.699,5.212 177.898,5.119 178.142 M217.814 235.664 C 226.541 235.716,240.718 235.716,249.319 235.664 C 257.919 235.611,250.779 235.568,233.451 235.568 C 216.124 235.568,209.087 235.611,217.814 235.664 M347.699 236.726 C 356.606 236.778,371.181 236.778,380.088 236.726 C 388.996 236.673,381.708 236.630,363.894 236.630 C 346.080 236.630,338.792 236.673,347.699 236.726 M69.717 292.841 C 69.890 294.299,69.897 294.307,70.017 293.141 C 70.085 292.483,70.005 291.810,69.840 291.646 C 69.675 291.481,69.620 292.019,69.717 292.841 M151.947 292.301 C 161.049 292.353,175.942 292.353,185.044 292.301 C 194.146 292.248,186.699 292.205,168.496 292.205 C 150.292 292.205,142.845 292.248,151.947 292.301 M329.821 292.294 C 330.164 292.537,330.282 298.864,330.355 321.082 L 330.449 349.558 330.446 320.914 C 330.443 295.756,330.378 292.254,329.912 292.126 C 329.521 292.020,329.497 292.064,329.821 292.294 M281.858 293.009 C 290.571 293.061,304.827 293.061,313.540 293.009 C 322.252 292.956,315.124 292.913,297.699 292.913 C 280.274 292.913,273.146 292.956,281.858 293.009 M86.256 349.646 C 95.246 349.699,110.060 349.699,119.177 349.646 C 128.293 349.593,120.938 349.550,102.832 349.550 C 84.726 349.550,77.267 349.593,86.256 349.646 M217.814 349.646 C 226.541 349.699,240.718 349.699,249.319 349.646 C 257.919 349.593,250.779 349.550,233.451 349.550 C 216.124 349.550,209.087 349.593,217.814 349.646 " stroke="none" fill="#88c0bc" fill-rule="evenodd"></path></g></svg>