<?xml version="1.0" standalone="no"?>
<!DOCTYPE svg PUBLIC "-//W3C//DTD SVG 20010904//EN"
 "http://www.w3.org/TR/2001/REC-SVG-20010904/DTD/svg10.dtd">
<svg version="1.0" xmlns="http://www.w3.org/2000/svg"
 width="992.000000pt" height="814.000000pt" viewBox="0 0 992.000000 814.000000"
 preserveAspectRatio="xMidYMid meet">
<metadata>
Created by potrace 1.16, written by Peter Selinger 2001-2019
</metadata>
<g transform="translate(0.000000,814.000000) scale(0.100000,-0.100000)"
fill="#000000" stroke="none">
<path d="M1431 7539 c-98 -39 -171 -139 -171 -234 0 -86 56 -173 141 -220 47
-26 64 -30 134 -30 64 0 89 5 125 24 128 66 178 187 130 313 -50 134 -218 203
-359 147z m224 -64 c68 -39 100 -94 100 -171 0 -53 -4 -69 -30 -105 -19 -27
-51 -54 -85 -72 -48 -25 -63 -28 -117 -24 -242 18 -290 309 -66 393 56 21 143
12 198 -21z"/>
<path d="M2255 7479 c-4 -6 -31 -120 -59 -253 l-52 -241 -52 -6 c-70 -9 -155
-52 -192 -97 -104 -126 -65 -297 85 -380 l51 -27 -67 -310 c-37 -170 -68 -296
-68 -278 -3 91 -61 177 -153 224 -170 87 -398 -43 -398 -226 0 -86 56 -173
141 -220 47 -26 64 -30 134 -30 67 0 88 5 130 27 54 28 94 66 118 113 9 17 16
26 16 20 0 -5 -30 -151 -67 -324 l-68 -315 -55 3 c-150 7 -289 -116 -289 -255
0 -40 23 -106 51 -146 26 -37 100 -85 150 -98 36 -10 37 -12 29 -43 -5 -17
-23 -101 -41 -184 l-32 -153 -38 0 c-103 0 -221 -82 -252 -175 -21 -60 -21
-99 -2 -156 21 -62 63 -109 126 -144 47 -26 64 -30 134 -30 87 0 141 20 198
74 120 110 87 327 -59 393 -31 14 -30 17 15 227 24 112 42 177 52 182 7 4 34
15 59 25 174 72 213 293 74 412 l-45 38 76 354 c42 195 78 356 80 358 2 2 62
-27 133 -65 l129 -68 -13 -35 c-40 -110 13 -232 127 -295 47 -26 64 -30 134
-30 88 0 142 21 200 76 l31 29 989 -528 c545 -291 1054 -562 1131 -603 78 -40
672 -357 1322 -704 l1180 -629 -19 -28 c-89 -125 -49 -285 92 -363 47 -26 64
-30 134 -30 67 0 88 5 131 27 53 28 107 82 119 117 9 28 28 27 23 -1 -3 -13
-31 -159 -63 -325 l-59 -301 -66 5 c-157 12 -300 -108 -300 -253 0 -43 25
-110 56 -151 32 -42 116 -91 170 -99 l40 -6 -36 -186 -37 -186 -54 3 c-149 7
-289 -116 -289 -254 0 -86 56 -173 141 -220 47 -26 64 -30 134 -30 87 0 141
20 198 74 103 95 98 267 -10 359 l-45 39 36 184 c20 101 39 193 41 205 3 13
21 28 47 40 91 41 145 114 155 208 7 68 -25 153 -73 196 l-36 31 61 312 c34
172 65 330 71 352 5 22 37 187 71 366 l63 327 43 6 c85 11 168 68 205 140 62
121 9 273 -118 334 -23 10 -33 21 -30 31 17 57 107 548 104 570 -2 19 -10 27
-27 29 -13 2 -28 -1 -33 -6 -5 -5 -35 -140 -67 -298 l-56 -289 -49 -7 c-66 -9
-150 -52 -186 -96 -101 -123 -67 -293 76 -373 30 -17 54 -38 54 -46 0 -36
-114 -583 -120 -576 -3 4 -14 34 -24 66 -21 70 -58 114 -126 151 -67 37 -149
45 -219 21 l-51 -17 -241 129 -241 128 55 7 c183 23 288 180 227 340 -50 134
-212 201 -354 148 -148 -56 -214 -208 -148 -341 12 -24 20 -44 19 -45 -1 -1
-355 188 -787 418 -432 231 -866 463 -965 515 -99 52 -640 340 -1202 640
l-1021 544 5 52 c22 218 -247 355 -437 223 l-35 -24 -145 75 c-80 42 -146 77
-148 78 -1 1 24 123 55 270 l58 268 50 12 c141 32 219 119 220 245 0 103 -40
167 -148 235 -14 9 -11 34 34 240 56 259 57 288 17 293 -14 2 -29 -2 -33 -9z
m-125 -556 c0 -14 -82 -388 -86 -392 -1 -2 -24 9 -49 23 -154 91 -130 300 42
362 42 14 93 18 93 7z m174 -91 c60 -84 39 -200 -47 -263 -41 -30 -113 -57
-123 -46 -3 3 11 84 31 179 50 235 40 213 78 189 18 -10 45 -37 61 -59z m-559
-777 c68 -39 100 -94 100 -171 0 -53 -4 -69 -30 -105 -19 -27 -51 -54 -85 -72
-48 -25 -63 -28 -117 -24 -242 18 -290 309 -66 393 56 21 143 12 198 -21z
m870 -290 c61 -35 97 -92 103 -161 2 -30 1 -54 -3 -54 -4 0 -90 44 -190 97
-172 92 -182 99 -162 112 69 48 176 51 252 6z m-11 -251 l79 -42 -42 -30 c-58
-42 -104 -56 -168 -49 -136 14 -238 149 -193 257 l12 30 117 -62 c64 -34 151
-81 195 -104z m-870 -413 c5 -8 -70 -390 -78 -398 -1 -1 -18 2 -38 7 -86 24
-158 112 -158 193 0 81 62 162 147 193 44 15 119 18 127 5z m141 -89 c26 -38
30 -53 30 -107 0 -54 -4 -69 -30 -106 -28 -39 -117 -101 -128 -89 -3 3 11 83
31 178 41 192 45 197 97 124z m-356 -959 c-21 -98 -39 -188 -39 -200 0 -31
-19 -29 -76 10 -56 37 -94 102 -94 159 0 106 104 206 216 208 l31 0 -38 -177z
m205 79 c60 -84 39 -200 -47 -263 -38 -28 -112 -57 -121 -48 -2 2 14 91 37
196 l41 193 30 -19 c17 -11 44 -37 60 -59z m6326 -284 c0 -16 -72 -382 -76
-387 -2 -2 -24 9 -49 23 -154 91 -130 300 42 362 48 17 83 18 83 2z m137 -37
c47 -34 83 -101 83 -156 0 -55 -36 -122 -83 -156 -42 -30 -113 -57 -123 -46
-5 5 42 276 63 365 7 28 12 28 60 -7z m-1102 -86 c68 -39 100 -94 100 -171 0
-53 -4 -69 -30 -105 -19 -27 -51 -54 -85 -72 -48 -25 -63 -28 -117 -24 -242
18 -290 309 -66 393 56 21 143 12 198 -21z m548 -719 c55 -20 102 -60 125
-107 12 -24 20 -44 18 -46 -2 -2 -69 32 -149 74 -150 81 -159 91 -72 92 22 0
57 -6 78 -13z m-53 -144 c101 -54 185 -103 187 -108 8 -23 -57 -93 -112 -119
-48 -24 -64 -27 -115 -22 -177 16 -263 180 -168 320 11 15 20 27 22 27 1 0 85
-44 186 -98z m106 -835 c4 -3 -11 -94 -31 -203 l-38 -196 -41 6 c-58 10 -122
50 -153 97 -91 138 28 317 204 306 29 -2 56 -6 59 -10z m145 -136 c15 -45 6
-112 -21 -156 -21 -33 -95 -93 -104 -84 -4 4 50 290 60 319 7 20 49 -31 65
-79z m-316 -741 c3 -5 -11 -97 -32 -205 l-38 -195 -30 6 c-50 10 -114 53 -142
95 -71 107 -16 248 114 295 45 15 119 18 128 4z m140 -88 c26 -37 30 -53 30
-106 0 -51 -5 -70 -27 -104 -25 -38 -112 -101 -124 -90 -2 3 10 83 28 177 37
191 41 196 93 123z"/>
<path d="M2821 7419 c-98 -39 -171 -139 -171 -234 0 -86 56 -173 141 -220 47
-26 64 -30 134 -30 64 0 89 5 125 24 128 66 178 187 130 313 -50 134 -218 203
-359 147z m224 -64 c68 -39 100 -94 100 -171 0 -53 -4 -69 -30 -105 -19 -27
-51 -54 -85 -72 -48 -25 -63 -28 -117 -24 -242 18 -290 309 -66 393 56 21 143
12 198 -21z"/>
<path d="M931 6859 c-98 -39 -171 -139 -171 -234 0 -86 56 -173 141 -220 47
-26 64 -30 134 -30 64 0 89 5 125 24 128 66 178 187 130 313 -50 134 -218 203
-359 147z m224 -64 c68 -39 100 -94 100 -171 0 -53 -4 -69 -30 -105 -19 -27
-51 -54 -85 -72 -48 -25 -63 -28 -117 -24 -242 18 -290 309 -66 393 56 21 143
12 198 -21z"/>
<path d="M2781 6589 c-98 -39 -171 -139 -171 -234 0 -86 56 -173 141 -220 47
-26 64 -30 134 -30 64 0 89 5 125 24 128 66 178 187 130 313 -50 134 -218 203
-359 147z m224 -64 c68 -39 100 -94 100 -171 0 -53 -4 -69 -30 -105 -19 -27
-51 -54 -85 -72 -48 -25 -63 -28 -117 -24 -242 18 -290 309 -66 393 56 21 143
12 198 -21z"/>
<path d="M581 5909 c-98 -39 -171 -139 -171 -234 0 -86 56 -173 141 -220 47
-26 64 -30 134 -30 64 0 89 5 125 24 128 66 178 187 130 313 -50 134 -218 203
-359 147z m224 -64 c68 -39 100 -94 100 -171 0 -53 -4 -69 -30 -105 -19 -27
-51 -54 -85 -72 -48 -25 -63 -28 -117 -24 -242 18 -290 309 -66 393 56 21 143
12 198 -21z"/>
<path d="M3351 5749 c-98 -39 -171 -139 -171 -234 0 -86 56 -173 141 -220 47
-26 64 -30 134 -30 64 0 89 5 125 24 128 66 178 187 130 313 -50 134 -218 203
-359 147z m224 -64 c68 -39 100 -94 100 -171 0 -53 -4 -69 -30 -105 -19 -27
-51 -54 -85 -72 -48 -25 -63 -28 -117 -24 -242 18 -290 309 -66 393 56 21 143
12 198 -21z"/>
<path d="M671 5009 c-98 -39 -171 -139 -171 -234 0 -86 56 -173 141 -220 47
-26 64 -30 134 -30 64 0 89 5 125 24 128 66 178 187 130 313 -50 134 -218 203
-359 147z m224 -64 c68 -39 100 -94 100 -171 0 -53 -4 -69 -30 -105 -19 -27
-51 -54 -85 -72 -48 -25 -63 -28 -117 -24 -242 18 -290 309 -66 393 56 21 143
12 198 -21z"/>
<path d="M2531 4929 c-98 -39 -171 -139 -171 -234 0 -86 56 -173 141 -220 47
-26 64 -30 134 -30 64 0 89 5 125 24 128 66 178 187 130 313 -50 134 -218 203
-359 147z m224 -64 c68 -39 100 -94 100 -171 0 -53 -4 -69 -30 -105 -19 -27
-51 -54 -85 -72 -48 -25 -63 -28 -117 -24 -242 18 -290 309 -66 393 56 21 143
12 198 -21z"/>
<path d="M7361 4469 c-98 -39 -171 -139 -171 -234 0 -86 56 -173 141 -220 47
-26 64 -30 134 -30 64 0 89 5 125 24 128 66 178 187 130 313 -50 134 -218 203
-359 147z m224 -64 c68 -39 100 -94 100 -171 0 -53 -4 -69 -30 -105 -19 -27
-51 -54 -85 -72 -48 -25 -63 -28 -117 -24 -242 18 -290 309 -66 393 56 21 143
12 198 -21z"/>
<path d="M8751 4349 c-98 -39 -171 -139 -171 -234 0 -86 56 -173 141 -220 47
-26 64 -30 134 -30 64 0 89 5 125 24 128 66 178 187 130 313 -50 134 -218 203
-359 147z m224 -64 c68 -39 100 -94 100 -171 0 -53 -4 -69 -30 -105 -19 -27
-51 -54 -85 -72 -48 -25 -63 -28 -117 -24 -242 18 -290 309 -66 393 56 21 143
12 198 -21z"/>
<path d="M1910 4210 c0 -103 1 -110 20 -110 17 0 19 8 22 88 l3 87 30 -88 c25
-74 33 -87 50 -85 15 2 27 23 50 87 l30 84 3 -86 c3 -79 5 -87 22 -87 19 0 20
7 20 110 l0 110 -30 0 c-27 0 -33 -6 -50 -47 -11 -27 -26 -61 -33 -77 l-13
-29 -24 64 c-29 81 -36 89 -71 89 l-29 0 0 -110z"/>
<path d="M2310 4211 c0 -92 3 -111 15 -111 12 0 15 17 15 88 l1 87 47 -88 c41
-77 50 -87 72 -85 25 3 25 3 25 108 0 92 -2 105 -17 108 -16 3 -18 -6 -19 -85
l0 -88 -43 85 c-35 72 -46 85 -69 88 l-27 3 0 -110z"/>
<path d="M4130 4085 c0 -108 1 -115 20 -115 18 0 20 8 22 93 l3 92 29 -93 c28
-87 32 -93 55 -90 23 3 29 13 56 93 l30 90 3 -93 c2 -84 4 -92 22 -92 19 0 20
7 20 116 l0 115 -32 -3 c-33 -3 -34 -4 -80 -130 -13 -35 -27 -22 -52 52 -24
71 -32 80 -67 80 l-29 0 0 -115z"/>
<path d="M4495 4188 c-22 -59 -65 -195 -65 -205 0 -25 38 -14 44 12 6 22 12
25 51 25 39 0 45 -3 51 -25 4 -18 13 -25 31 -25 19 0 23 4 18 18 -3 9 -20 60
-38 112 -29 87 -34 95 -60 98 -16 2 -29 -2 -32 -10z"/>
<path d="M4640 4195 c0 -3 12 -27 27 -54 l28 -49 -28 -56 c-32 -67 -32 -66 -8
-66 17 0 25 8 65 64 13 19 15 18 35 -22 14 -28 28 -42 41 -42 25 0 25 -1 -7
66 l-28 56 28 49 c32 59 32 59 7 59 -13 0 -26 -12 -37 -35 -19 -41 -28 -43
-44 -13 -18 34 -35 48 -58 48 -12 0 -21 -2 -21 -5z"/>
<path d="M8711 3519 c-98 -39 -171 -139 -171 -234 0 -86 56 -173 141 -220 47
-26 64 -30 134 -30 64 0 89 5 125 24 128 66 178 187 130 313 -50 134 -218 203
-359 147z m224 -64 c68 -39 100 -94 100 -171 0 -53 -4 -69 -30 -105 -19 -27
-51 -54 -85 -72 -48 -25 -63 -28 -117 -24 -242 18 -290 309 -66 393 56 21 143
12 198 -21z"/>
<path d="M6511 2839 c-98 -39 -171 -139 -171 -234 0 -86 56 -173 141 -220 47
-26 64 -30 134 -30 64 0 89 5 125 24 128 66 178 187 130 313 -50 134 -218 203
-359 147z m224 -64 c68 -39 100 -94 100 -171 0 -53 -4 -69 -30 -105 -19 -27
-51 -54 -85 -72 -48 -25 -63 -28 -117 -24 -242 18 -290 309 -66 393 56 21 143
12 198 -21z"/>
<path d="M8321 2759 c-98 -39 -171 -139 -171 -234 0 -86 56 -173 141 -220 47
-26 64 -30 134 -30 64 0 89 5 125 24 128 66 178 187 130 313 -50 134 -218 203
-359 147z m224 -64 c68 -39 100 -94 100 -171 0 -53 -4 -69 -30 -105 -19 -27
-51 -54 -85 -72 -48 -25 -63 -28 -117 -24 -242 18 -290 309 -66 393 56 21 143
12 198 -21z"/>
<path d="M9281 2679 c-98 -39 -171 -139 -171 -234 0 -86 56 -173 141 -220 47
-26 64 -30 134 -30 64 0 89 5 125 24 128 66 178 187 130 313 -50 134 -218 203
-359 147z m224 -64 c68 -39 100 -94 100 -171 0 -53 -4 -69 -30 -105 -19 -27
-51 -54 -85 -72 -48 -25 -63 -28 -117 -24 -242 18 -290 309 -66 393 56 21 143
12 198 -21z"/>
<path d="M6601 1939 c-98 -39 -171 -139 -171 -234 0 -86 56 -173 141 -220 47
-26 64 -30 134 -30 64 0 89 5 125 24 128 66 178 187 130 313 -50 134 -218 203
-359 147z m224 -64 c68 -39 100 -94 100 -171 0 -53 -4 -69 -30 -105 -19 -27
-51 -54 -85 -72 -48 -25 -63 -28 -117 -24 -242 18 -290 309 -66 393 56 21 143
12 198 -21z"/>
<path d="M8461 1859 c-98 -39 -171 -139 -171 -234 0 -86 56 -173 141 -220 47
-26 64 -30 134 -30 64 0 89 5 125 24 128 66 178 187 130 313 -50 134 -218 203
-359 147z m224 -64 c68 -39 100 -94 100 -171 0 -53 -4 -69 -30 -105 -19 -27
-51 -54 -85 -72 -48 -25 -63 -28 -117 -24 -242 18 -290 309 -66 393 56 21 143
12 198 -21z"/>
<path d="M7860 1120 c0 -103 1 -110 20 -110 17 0 19 8 22 88 l3 87 30 -88 c25
-74 33 -87 50 -85 15 2 27 23 50 87 l30 84 3 -86 c3 -79 5 -87 22 -87 19 0 20
7 20 110 l0 110 -30 0 c-27 0 -33 -6 -50 -47 -11 -27 -26 -61 -33 -77 l-13
-29 -24 64 c-29 81 -36 89 -71 89 l-29 0 0 -110z"/>
<path d="M8260 1121 c0 -92 3 -111 15 -111 12 0 15 17 15 88 l1 87 47 -88 c41
-77 50 -87 72 -85 25 3 25 3 25 108 0 92 -2 105 -17 108 -16 3 -18 -6 -19 -85
l0 -88 -43 85 c-35 72 -46 85 -69 88 l-27 3 0 -110z"/>
</g>
</svg>
