<?xml version="1.0" standalone="no"?>
<!DOCTYPE svg PUBLIC "-//W3C//DTD SVG 20010904//EN"
 "http://www.w3.org/TR/2001/REC-SVG-20010904/DTD/svg10.dtd">
<svg version="1.0" xmlns="http://www.w3.org/2000/svg"
 width="752.000000pt" height="684.000000pt" viewBox="0 0 752.000000 684.000000"
 preserveAspectRatio="xMidYMid meet">
<metadata>
Created by potrace 1.16, written by Peter Selinger 2001-2019
</metadata>
<g transform="translate(0.000000,684.000000) scale(0.100000,-0.100000)"
fill="#000000" stroke="none">
<path d="M488 6383 l-28 -4 0 -2676 c0 -2537 1 -2676 18 -2689 14 -11 168 -13
819 -14 l803 0 4 -23 c3 -12 28 -193 56 -402 29 -209 56 -390 61 -402 11 -29
73 -33 87 -6 5 10 29 150 53 311 l44 293 86 112 85 112 972 3 c663 1 972 -1
972 -8 0 -23 112 -586 120 -607 13 -32 67 -32 79 0 5 12 17 156 27 320 l17
297 641 0 c353 0 651 3 663 6 28 8 37 48 28 120 l-6 54 -656 0 -656 0 6 103
c3 56 14 225 23 374 l18 273 576 0 c620 0 616 0 608 51 l-3 24 -603 3 c-397 1
-610 -1 -622 -8 -11 -6 -24 -27 -29 -48 -6 -20 -20 -202 -32 -404 l-22 -368
-69 0 c-37 0 -68 3 -68 6 0 29 -294 1506 -304 1529 -8 17 -17 38 -20 48 -6 18
-50 24 -61 7 -3 -5 -102 -265 -219 -577 -204 -539 -214 -565 -220 -523 -6 45
-243 2900 -248 2995 -3 48 -4 50 -32 50 -16 0 -32 -7 -36 -15 -5 -8 -63 -322
-131 -697 -68 -375 -124 -681 -125 -680 -1 1 -21 441 -44 977 -23 536 -46 985
-51 998 -7 19 -15 23 -42 20 -28 -3 -33 -8 -39 -38 -4 -19 -62 -915 -129
-1990 l-122 -1955 -60 -77 -60 -78 -228 0 c-208 0 -228 1 -233 18 -2 9 -53
368 -112 797 -114 832 -117 845 -169 845 -13 0 -27 -5 -31 -11 -4 -6 -48 -203
-99 -438 l-92 -426 -452 -5 c-429 -5 -453 -6 -466 -24 -10 -13 -11 -24 -4 -37
9 -18 32 -19 484 -19 440 0 476 1 493 18 12 12 40 123 91 364 41 191 76 346
77 345 1 -1 46 -315 98 -697 53 -382 98 -703 100 -712 4 -17 -35 -18 -715 -18
l-719 0 -2 2594 c-2 1427 -6 2598 -11 2602 -9 9 -101 14 -139 7z m2615 -3381
c12 -19 52 -14 72 8 14 15 46 175 135 660 65 353 119 643 121 645 3 3 230
-2718 242 -2895 2 -29 6 -35 28 -38 14 -2 30 3 35 10 6 7 111 282 234 611 123
329 227 594 230 590 8 -9 282 -1405 276 -1410 -1 -2 -397 -2 -879 -1 l-877 3
47 60 47 60 103 1615 c56 888 103 1635 104 1660 1 25 18 -317 38 -760 20 -443
40 -811 44 -818z m-698 -2101 l-76 -98 -30 -193 c-16 -106 -30 -195 -32 -196
-2 -2 -20 121 -41 274 -20 152 -40 285 -42 295 -5 16 7 17 145 17 l151 0 -75
-99z"/>
</g>
</svg>
