<?xml version="1.0" standalone="no"?>
<!DOCTYPE svg PUBLIC "-//W3C//DTD SVG 20010904//EN"
 "http://www.w3.org/TR/2001/REC-SVG-20010904/DTD/svg10.dtd">
<svg version="1.0" xmlns="http://www.w3.org/2000/svg"
 width="673.000000pt" height="657.000000pt" viewBox="0 0 673.000000 657.000000"
 preserveAspectRatio="xMidYMid meet">
<metadata>
Created by potrace 1.16, written by Peter Selinger 2001-2019
</metadata>
<g transform="translate(0.000000,657.000000) scale(0.100000,-0.100000)"
fill="#000000" stroke="none">
<path d="M20 3300 l0 -3240 3320 0 3320 0 0 65 0 65 -3255 0 -3255 0 0 3175 0
3175 -65 0 -65 0 0 -3240z"/>
<path d="M6162 5939 c-35 -14 -27 -62 12 -69 26 -5 -73 -96 -1342 -1230 -1144
-1022 -1369 -1227 -1359 -1240 10 -13 9 -13 -5 0 -8 8 -399 431 -869 940
l-853 925 38 6 c45 7 59 20 54 50 -3 23 -6 24 -100 24 -66 0 -101 -4 -110 -13
-9 -9 -13 -41 -13 -95 0 -82 0 -82 27 -85 20 -2 30 3 40 23 14 26 17 23 883
-915 728 -789 872 -941 892 -938 14 2 548 472 1410 1243 763 682 1390 1241
1393 1243 4 1 12 -9 18 -23 10 -21 18 -26 40 -23 l27 3 -3 80 c-1 44 -4 86 -7
93 -5 14 -137 16 -173 1z"/>
<path d="M5145 5872 c-70 -38 -108 -96 -113 -172 -6 -77 16 -138 65 -181 51
-44 92 -59 163 -59 138 0 230 88 230 220 0 132 -93 220 -232 220 -49 0 -74 -6
-113 -28z"/>
<path d="M3935 5842 c-70 -38 -108 -96 -113 -172 -6 -77 16 -138 65 -181 51
-44 92 -59 163 -59 138 0 230 88 230 220 0 132 -93 220 -232 220 -49 0 -74 -6
-113 -28z"/>
<path d="M6045 5332 c-70 -38 -108 -96 -113 -172 -6 -77 16 -138 65 -181 51
-44 92 -59 163 -59 138 0 230 88 230 220 0 132 -93 220 -232 220 -49 0 -74 -6
-113 -28z"/>
<path d="M5505 4862 c-70 -38 -108 -96 -113 -172 -6 -77 16 -138 65 -181 51
-44 92 -59 163 -59 138 0 230 88 230 220 0 132 -93 220 -232 220 -49 0 -74 -6
-113 -28z"/>
<path d="M3805 4622 c-70 -38 -108 -96 -113 -172 -6 -77 16 -138 65 -181 51
-44 92 -59 163 -59 138 0 230 88 230 220 0 132 -93 220 -232 220 -49 0 -74 -6
-113 -28z"/>
<path d="M2875 4472 c-70 -38 -108 -96 -113 -172 -6 -77 16 -138 65 -181 51
-44 92 -59 163 -59 138 0 230 88 230 220 0 132 -93 220 -232 220 -49 0 -74 -6
-113 -28z"/>
<path d="M5245 4222 c-70 -38 -108 -96 -113 -172 -6 -77 16 -138 65 -181 51
-44 92 -59 163 -59 138 0 230 88 230 220 0 132 -93 220 -232 220 -49 0 -74 -6
-113 -28z"/>
<path d="M2715 3712 c-70 -38 -108 -96 -113 -172 -6 -77 16 -138 65 -181 51
-44 92 -59 163 -59 138 0 230 88 230 220 0 132 -93 220 -232 220 -49 0 -74 -6
-113 -28z"/>
<path d="M4205 3482 c-70 -38 -108 -96 -113 -172 -6 -77 16 -138 65 -181 51
-44 92 -59 163 -59 138 0 230 88 230 220 0 132 -93 220 -232 220 -49 0 -74 -6
-113 -28z"/>
<path d="M1525 2802 c-70 -38 -108 -96 -113 -172 -6 -77 16 -138 65 -181 51
-44 92 -59 163 -59 138 0 230 88 230 220 0 132 -93 220 -232 220 -49 0 -74 -6
-113 -28z"/>
<path d="M2765 2382 c-70 -38 -108 -96 -113 -172 -6 -77 16 -138 65 -181 51
-44 92 -59 163 -59 138 0 230 88 230 220 0 132 -93 220 -232 220 -49 0 -74 -6
-113 -28z"/>
<path d="M595 1852 c-70 -38 -108 -96 -113 -172 -6 -77 16 -138 65 -181 51
-44 92 -59 163 -59 138 0 230 88 230 220 0 132 -93 220 -232 220 -49 0 -74 -6
-113 -28z"/>
<path d="M4265 1608 c-3 -7 -4 -144 -3 -303 l3 -290 160 0 160 0 0 45 0 45
-102 3 -103 3 -2 252 -3 252 -53 3 c-36 2 -54 -1 -57 -10z"/>
<path d="M4675 1607 c-3 -7 -4 -143 -3 -302 l3 -290 145 0 c130 1 150 3 198
24 67 30 118 89 138 160 23 77 15 221 -14 277 -31 60 -92 109 -161 128 -73 20
-299 23 -306 3z m293 -114 c68 -50 96 -145 72 -244 -23 -96 -84 -139 -197
-139 l-53 0 0 206 0 207 76 -5 c54 -4 83 -11 102 -25z"/>
<path d="M5425 1610 c-22 -35 -204 -585 -197 -592 5 -5 31 -8 58 -6 l49 3 22
65 22 65 117 0 117 0 22 -65 22 -65 56 -3 c41 -2 59 1 62 10 5 12 -172 535
-196 579 -8 16 -21 19 -79 19 -38 0 -72 -4 -75 -10z m115 -236 c22 -65 40
-122 40 -126 0 -4 -38 -8 -85 -8 -47 0 -85 3 -85 7 0 16 82 254 86 250 3 -2
22 -57 44 -123z"/>
<path d="M1615 1392 c-70 -38 -108 -96 -113 -172 -6 -77 16 -138 65 -181 51
-44 92 -59 163 -59 138 0 230 88 230 220 0 132 -93 220 -232 220 -49 0 -74 -6
-113 -28z"/>
<path d="M2345 1212 c-70 -38 -108 -96 -113 -172 -6 -77 16 -138 65 -181 51
-44 92 -59 163 -59 138 0 230 88 230 220 0 132 -93 220 -232 220 -49 0 -74 -6
-113 -28z"/>
</g>
</svg>
