<?xml version="1.0" standalone="no"?>
<!DOCTYPE svg PUBLIC "-//W3C//DTD SVG 20010904//EN"
 "http://www.w3.org/TR/2001/REC-SVG-20010904/DTD/svg10.dtd">
<svg version="1.0" xmlns="http://www.w3.org/2000/svg"
 width="673.000000pt" height="657.000000pt" viewBox="0 0 673.000000 657.000000"
 preserveAspectRatio="xMidYMid meet">
<metadata>
Created by potrace 1.16, written by Peter Selinger 2001-2019
</metadata>
<g transform="translate(0.000000,657.000000) scale(0.100000,-0.100000)"
fill="#000000" stroke="none">
<path d="M20 3300 l0 -3240 3320 0 3320 0 0 65 0 65 -3255 0 -3255 0 0 3175 0
3175 -65 0 -65 0 0 -3240z"/>
<path d="M300 4830 l0 -1710 1045 0 1045 0 0 1710 0 1710 -1045 0 -1045 0 0
-1710z m2040 0 l0 -1660 -995 0 -995 0 0 1660 0 1660 995 0 995 0 0 -1660z"/>
<path d="M3355 3321 c-2570 -2298 -2920 -2613 -2920 -2638 0 -22 5 -29 25 -31
21 -2 198 151 1040 904 558 499 1029 919 1045 935 17 15 875 782 1908 1705
1670 1491 1878 1680 1875 1703 -9 74 109 176 -2973 -2578z"/>
<path d="M5145 5872 c-70 -38 -108 -96 -113 -172 -6 -77 16 -138 65 -181 51
-44 92 -59 163 -59 138 0 230 88 230 220 0 132 -93 220 -232 220 -49 0 -74 -6
-113 -28z"/>
<path d="M3935 5842 c-70 -38 -108 -96 -113 -172 -6 -77 16 -138 65 -181 51
-44 92 -59 163 -59 138 0 230 88 230 220 0 132 -93 220 -232 220 -49 0 -74 -6
-113 -28z"/>
<path d="M6045 5332 c-70 -38 -108 -96 -113 -172 -6 -77 16 -138 65 -181 51
-44 92 -59 163 -59 138 0 230 88 230 220 0 132 -93 220 -232 220 -49 0 -74 -6
-113 -28z"/>
<path d="M5505 4862 c-70 -38 -108 -96 -113 -172 -6 -77 16 -138 65 -181 51
-44 92 -59 163 -59 138 0 230 88 230 220 0 132 -93 220 -232 220 -49 0 -74 -6
-113 -28z"/>
<path d="M3805 4622 c-70 -38 -108 -96 -113 -172 -6 -77 16 -138 65 -181 51
-44 92 -59 163 -59 138 0 230 88 230 220 0 132 -93 220 -232 220 -49 0 -74 -6
-113 -28z"/>
<path d="M2875 4472 c-70 -38 -108 -96 -113 -172 -6 -77 16 -138 65 -181 51
-44 92 -59 163 -59 138 0 230 88 230 220 0 132 -93 220 -232 220 -49 0 -74 -6
-113 -28z"/>
<path d="M5245 4222 c-70 -38 -108 -96 -113 -172 -6 -77 16 -138 65 -181 51
-44 92 -59 163 -59 138 0 230 88 230 220 0 132 -93 220 -232 220 -49 0 -74 -6
-113 -28z"/>
<path d="M2715 3712 c-70 -38 -108 -96 -113 -172 -6 -77 16 -138 65 -181 51
-44 92 -59 163 -59 138 0 230 88 230 220 0 132 -93 220 -232 220 -49 0 -74 -6
-113 -28z"/>
<path d="M4205 3482 c-70 -38 -108 -96 -113 -172 -6 -77 16 -138 65 -181 51
-44 92 -59 163 -59 138 0 230 88 230 220 0 132 -93 220 -232 220 -49 0 -74 -6
-113 -28z"/>
<path d="M1525 2802 c-70 -38 -108 -96 -113 -172 -6 -77 16 -138 65 -181 51
-44 92 -59 163 -59 138 0 230 88 230 220 0 132 -93 220 -232 220 -49 0 -74 -6
-113 -28z"/>
<path d="M3210 1425 l0 -1045 1710 0 1710 0 0 1045 0 1045 -1710 0 -1710 0 0
-1045z m3370 0 l0 -995 -1660 0 -1660 0 0 995 0 995 1660 0 1660 0 0 -995z"/>
<path d="M2765 2382 c-70 -38 -108 -96 -113 -172 -6 -77 16 -138 65 -181 51
-44 92 -59 163 -59 138 0 230 88 230 220 0 132 -93 220 -232 220 -49 0 -74 -6
-113 -28z"/>
<path d="M595 1852 c-70 -38 -108 -96 -113 -172 -6 -77 16 -138 65 -181 51
-44 92 -59 163 -59 138 0 230 88 230 220 0 132 -93 220 -232 220 -49 0 -74 -6
-113 -28z"/>
<path d="M1615 1392 c-70 -38 -108 -96 -113 -172 -6 -77 16 -138 65 -181 51
-44 92 -59 163 -59 138 0 230 88 230 220 0 132 -93 220 -232 220 -49 0 -74 -6
-113 -28z"/>
<path d="M2345 1212 c-70 -38 -108 -96 -113 -172 -6 -77 16 -138 65 -181 51
-44 92 -59 163 -59 138 0 230 88 230 220 0 132 -93 220 -232 220 -49 0 -74 -6
-113 -28z"/>
</g>
</svg>
