<?xml version="1.0" standalone="no"?><!DOCTYPE svg PUBLIC "-//W3C//DTD SVG 1.1//EN" "http://www.w3.org/Graphics/SVG/1.1/DTD/svg11.dtd"><svg t="1606048795688" class="icon" viewBox="0 0 1024 1024" version="1.1" xmlns="http://www.w3.org/2000/svg" p-id="2279" xmlns:xlink="http://www.w3.org/1999/xlink" width="200" height="200"><defs><style type="text/css"></style></defs><path d="M832 128H192a64 64 0 0 0-64 64v640a64 64 0 0 0 64 64h640a64 64 0 0 0 64-64V192a64 64 0 0 0-64-64z m-96 384a32 32 0 0 1-32 32H544v160a32 32 0 0 1-64 0V544H320a32 32 0 0 1-32-32 32 32 0 0 1 32-32h160V320a32 32 0 0 1 64 0v160h160a32 32 0 0 1 32 32z" p-id="2280" fill="#1296db"></path></svg>