<?xml version="1.0" standalone="no"?><!DOCTYPE svg PUBLIC "-//W3C//DTD SVG 1.1//EN" "http://www.w3.org/Graphics/SVG/1.1/DTD/svg11.dtd"><svg t="1606048956018" class="icon" viewBox="0 0 1024 1024" version="1.1" xmlns="http://www.w3.org/2000/svg" p-id="4497" xmlns:xlink="http://www.w3.org/1999/xlink" width="200" height="200"><defs><style type="text/css"></style></defs><path d="M256 512h-64a64 64 0 0 0-64 64v256a64 64 0 0 0 64 64h64a64 64 0 0 0 64-64V576a64 64 0 0 0-64-64z m0 320h-64V576h64zM514.53 832H480V384h64v151.06a256.78 256.78 0 0 1 64-52.53V384a64 64 0 0 0-64-64h-64a64 64 0 0 0-64 64v448a64 64 0 0 0 64 64h64a63.39 63.39 0 0 0 19.41-3.32A256.56 256.56 0 0 1 514.53 832zM736 448a257.91 257.91 0 0 1 32 2.21V192h64v274.78a255.43 255.43 0 0 1 64 37.55V192a64 64 0 0 0-64-64h-64a64 64 0 0 0-64 64v258.21a257.91 257.91 0 0 1 32-2.21z" p-id="4498" fill="#1296db"></path><path d="M736 512c-106 0-192 86-192 192s86 192 192 192 192-86 192-192-86-192-192-192z m0.77 316.78a22.86 22.86 0 1 1 22.85-22.86 22.86 22.86 0 0 1-22.85 22.86z m18-96a19 19 0 0 1-37.89 0L712 625.05a24 24 0 1 1 48 0.05z" p-id="4499" fill="#1296db"></path></svg>