<?xml version="1.0" standalone="no"?>
<!DOCTYPE svg PUBLIC "-//W3C//DTD SVG 20010904//EN"
 "http://www.w3.org/TR/2001/REC-SVG-20010904/DTD/svg10.dtd">
<svg version="1.0" xmlns="http://www.w3.org/2000/svg"
 width="447.000000pt" height="525.000000pt" viewBox="0 0 447.000000 525.000000"
 preserveAspectRatio="xMidYMid meet">
<metadata>
Created by potrace 1.16, written by Peter Selinger 2001-2019
</metadata>
<g transform="translate(0.000000,525.000000) scale(0.100000,-0.100000)"
fill="#000000" stroke="none">
<path d="M458 5033 c-379 -191 -414 -211 -431 -243 -16 -32 -17 -76 -15 -577
l3 -541 25 -27 c27 -29 783 -413 835 -425 23 -5 29 -11 26 -26 -3 -10 -6 -261
-8 -557 -3 -446 -1 -544 10 -567 14 -28 14 -28 -22 -34 -20 -4 -216 -98 -436
-209 -366 -185 -401 -205 -418 -237 -16 -32 -17 -76 -15 -577 l3 -541 25 -27
c14 -16 194 -112 425 -227 344 -172 406 -200 445 -200 39 0 101 27 440 197
217 108 407 208 422 222 26 25 26 25 37 4 7 -13 156 -93 415 -222 357 -179
408 -202 451 -202 43 0 94 23 454 204 368 186 406 207 423 239 17 33 18 68 16
575 -2 297 -7 547 -11 557 -7 13 1 19 45 32 29 9 224 103 432 209 344 174 381
195 398 227 17 33 18 67 16 577 -3 526 -4 542 -23 570 -26 35 -810 433 -855
433 -28 0 -28 0 -14 29 12 25 14 114 12 569 -3 525 -4 541 -23 569 -15 20
-128 82 -423 231 -341 171 -410 202 -447 202 -37 0 -106 -31 -443 -199 -246
-123 -407 -209 -419 -225 -19 -23 -20 -23 -31 -5 -7 11 -197 112 -423 224
-324 162 -418 205 -449 205 -31 0 -124 -43 -452 -207z m867 -35 l405 -203 0
-535 0 -535 -410 -205 -410 -205 -410 205 -410 205 0 535 0 535 403 202 c221
111 408 202 414 202 7 1 195 -90 418 -201z m1760 0 l405 -203 0 -535 0 -536
-407 -203 -408 -203 -405 202 -405 202 -3 537 -2 536 402 202 c222 111 406
202 410 202 5 1 190 -90 413 -201z m-880 -1600 l405 -203 0 -535 0 -535 -410
-205 -410 -205 -410 205 -410 205 0 535 0 535 403 202 c221 111 408 202 414
202 7 1 195 -90 418 -201z m1760 0 l405 -203 0 -537 0 -538 -400 -200 c-220
-110 -407 -200 -415 -200 -8 0 -195 90 -415 200 l-400 200 0 538 0 537 403
202 c221 111 405 202 409 202 5 1 190 -90 413 -201z m-2640 -1600 l405 -203 0
-535 0 -535 -410 -205 -410 -205 -410 205 -410 205 0 535 0 535 403 202 c221
111 408 202 414 202 7 1 195 -90 418 -201z m1760 0 l405 -203 0 -537 0 -538
-400 -200 c-220 -110 -407 -200 -415 -200 -8 0 -195 90 -415 200 l-400 200 0
538 0 537 403 202 c221 111 405 202 409 202 5 1 190 -90 413 -201z"/>
</g>
</svg>
