<?xml version="1.0" encoding="UTF-8" standalone="no"?>
<svg
   width="480pt"
   height="290pt"
   viewBox="0 0 480 290"
   version="1.1"
   id="svg10"
   sodipodi:docname="SVGlogo.svg"
   inkscape:version="1.1 (c68e22c387, 2021-05-23)"
   xmlns:inkscape="http://www.inkscape.org/namespaces/inkscape"
   xmlns:sodipodi="http://sodipodi.sourceforge.net/DTD/sodipodi-0.dtd"
   xmlns="http://www.w3.org/2000/svg"
   xmlns:svg="http://www.w3.org/2000/svg">
  <defs
     id="defs14" />
  <sodipodi:namedview
     id="namedview12"
     pagecolor="#ffffff"
     bordercolor="#666666"
     borderopacity="1.0"
     inkscape:pageshadow="2"
     inkscape:pageopacity="0.0"
     inkscape:pagecheckerboard="0"
     inkscape:document-units="pt"
     showgrid="false"
     inkscape:zoom="1.7640625"
     inkscape:cx="320"
     inkscape:cy="193.58725"
     inkscape:window-width="1920"
     inkscape:window-height="1017"
     inkscape:window-x="1432"
     inkscape:window-y="-8"
     inkscape:window-maximized="1"
     inkscape:current-layer="svg10" />
  <g
     id="surface2"
     transform="matrix(2.9998485,0,0,2.8962257,-493.88966,-189.23866)"
     style="stroke-width:0.262801">
    <path
       style="fill:#e6e6e6;fill-opacity:1;fill-rule:evenodd;stroke:none;stroke-width:0.262801"
       d="m 317.55078,161.64844 c -0.0664,0.60156 -1.63281,1.15234 -4.69922,1.65234 -3.0664,0.5 -7.3164,0.93359 -12.75,1.30078 -5.43359,0.39844 -11.73437,0.69922 -18.90234,0.89844 -7.13281,0.23437 -14.83203,0.35156 -23.09766,0.35156 -8.26953,0 -15.98437,-0.11719 -23.15234,-0.35156 -7.16406,-0.19922 -13.46485,-0.5 -18.89844,-0.89844 -5.43359,-0.36719 -9.68359,-0.80078 -12.75,-1.30078 -3.03516,-0.5 -4.58594,-1.05078 -4.65234,-1.65234 0.0664,-0.56641 1.61718,-1.09766 4.65234,-1.59766 3.06641,-0.5 7.31641,-0.94922 12.75,-1.35156 5.43359,-0.36719 11.73438,-0.64844 18.89844,-0.84766 7.16797,-0.23437 14.88281,-0.35156 23.15234,-0.35156 8.26563,0 15.98047,0.11719 23.14844,0.35156 7.13281,0.19922 13.41797,0.5 18.85156,0.89844 5.4336,0.36719 9.6836,0.80078 12.75,1.30078 3.06641,0.5 4.63281,1.03125 4.69922,1.59766"
       id="path2" />
    <path
       style="fill:#265794;fill-opacity:1;fill-rule:evenodd;stroke:none;stroke-width:0.262801"
       d="m 242.30078,117.30078 c 2.33203,-0.76562 4.66406,-1.60156 7,-2.5 0,0 0,0 0,0 0.0312,0 0.0312,0 0,0 2.13281,-0.83594 4.14844,-1.68359 6.05078,-2.55078 -0.0664,-0.16797 -0.13672,-0.31641 -0.20312,-0.44922 -0.9336,-2 -1.31641,-3.93359 -1.14844,-5.80078 0.16797,-1.86719 0.80078,-3.51562 1.89844,-4.94922 1.10156,-1.402342 2.60156,-2.402342 4.5,-2.999999 0.10156,0 0.18359,-0.01563 0.25,-0.05078 -0.79688,-1.632812 -1.66407,-3.25 -2.59766,-4.851562 0,0 0,0 0,0 0,0 0,0 0,0 -1.06641,-1.832032 -2.19922,-3.546876 -3.40234,-5.148438 -0.0977,0.03516 -0.23047,0.06641 -0.39844,0.101562 -1.80078,0.433594 -3.63281,0.53125 -5.5,0.296876 -1.86719,-0.230469 -3.58203,-0.765626 -5.14844,-1.597657 -1.5664,-0.800781 -2.80078,-1.835937 -3.70312,-3.101562 -1.79688,0.402343 -3.59766,0.902343 -5.39844,1.5 0,0 0,0 0,0 0,0 0,0 0,0 -2.23438,0.734375 -4.36719,1.550781 -6.39844,2.449219 0.59766,1.367187 0.71485,2.800781 0.34766,4.300781 -0.36719,1.5 -1.13281,2.917969 -2.30078,4.25 -1.16407,1.367187 -2.66407,2.5 -4.5,3.402343 0.5664,1.863277 1.26953,3.781247 2.10156,5.749997 0,0 0,0 0,0 0,0 0,0 0,0 0.76562,1.86328 1.61719,3.71485 2.55078,5.54688 2.09766,-0.79688 4.19922,-1.06641 6.30078,-0.79688 2.09766,0.26563 4,1 5.69922,2.19922 1.69922,1.19922 3.01563,2.81641 3.94922,4.84766 0,0.0352 0.0156,0.0859 0.0508,0.15234 M 257.25,115 c -2.06641,0.96484 -4.25,1.89844 -6.55078,2.80078 0,0.0312 0,0.0312 0,0 0,0.0312 0,0.0508 0,0.0508 -2.5,0.96485 -5.01563,1.84766 -7.55078,2.64844 0.23437,1.80078 0.0664,3.55078 -0.5,5.25 -0.53125,1.69922 -1.39844,3.23437 -2.59766,4.60156 0.56641,0.56641 1.13281,1.09766 1.69922,1.59766 2.46484,2.26562 4.86719,4.03515 7.19922,5.30078 0.0664,-1.10156 0.3164,-2.19922 0.75,-3.30078 0.73437,-1.76563 1.78515,-3.1836 3.15234,-4.25 1.36328,-1.03125 2.89844,-1.6836 4.59766,-1.94922 1.69922,-0.23437 3.40234,0.0156 5.10156,0.75 1.16406,0.5 2.16406,1.18359 3,2.05078 0.73438,-2.5664 1.06641,-5.51562 1,-8.85156 0,-0.73438 -0.0156,-1.46484 -0.0508,-2.19922 -1.73438,-0.10156 -3.39844,-0.53516 -5,-1.30078 -1.56641,-0.76563 -2.98438,-1.83203 -4.25,-3.19922 M 226.85156,85.800781 c 2.09766,-0.902343 4.28125,-1.71875 6.54688,-2.449219 0,0 0,0 0,0 1.90234,-0.601562 3.76953,-1.117187 5.60156,-1.550781 -0.30078,-1.132812 -0.19922,-2.183593 0.30078,-3.152343 0.46484,-0.964844 1.28125,-1.78125 2.44922,-2.449219 -0.23438,-0.132813 -0.46484,-0.265625 -0.69922,-0.398438 -2.23437,-1.132812 -4.38281,-1.917969 -6.44922,-2.351562 -0.0352,0.5 -0.25,1 -0.65234,1.5 -0.66406,0.800781 -1.58203,1.46875 -2.75,2 -1.16406,0.566406 -2.44922,0.96875 -3.84766,1.199219 -1.36719,0.234374 -2.71875,0.269531 -4.05078,0.101562 -0.56641,-0.06641 -1.08594,-0.183594 -1.55078,-0.351562 -0.80078,1.269531 -1.39844,2.785156 -1.80078,4.550781 -0.0664,0.335937 -0.13281,0.699219 -0.19922,1.101562 1.43359,-0.101562 2.76562,0.05078 4,0.449219 1.23437,0.398438 2.26562,1 3.10156,1.800781 m 32.84766,-3.601562 c 0.10156,0.933593 -0.082,1.816406 -0.55078,2.652343 C 258.68359,85.683594 257.96484,86.398438 257,87 c 1.26562,1.699219 2.48437,3.515625 3.64844,5.449219 0.0351,0 0.0351,0 0,0 1.03515,1.699219 1.98437,3.433593 2.85156,5.199219 1.60156,0.03516 3.18359,0.386718 4.75,1.050781 1.53516,0.667969 2.91797,1.601561 4.14844,2.800781 0.33593,-0.30078 0.65234,-0.61719 0.95312,-0.94922 1.59766,-1.699218 2.66406,-3.367186 3.19922,-4.999999 -0.96875,-0.167969 -2,-0.535156 -3.10156,-1.101562 -1.4336,-0.734375 -2.64844,-1.617188 -3.64844,-2.648438 -1,-1.066406 -1.71875,-2.152343 -2.15234,-3.25 -0.4336,-1.132812 -0.5,-2.183593 -0.19922,-3.152343 0.16797,-0.5 0.43359,-0.914063 0.80078,-1.25 -1.86719,-0.699219 -4,-1.25 -6.39844,-1.648438 -0.70312,-0.132812 -1.41797,-0.234375 -2.15234,-0.300781 M 218.19922,122 c 0.10156,-1.86719 0.60156,-3.61719 1.5,-5.25 0.86719,-1.66797 2.08594,-3.08203 3.65234,-4.25 -0.96875,-1.93359 -1.83594,-3.88281 -2.60156,-5.85156 0,0 0,0 0,0 0,0 0,0 0,0 -0.83203,-2.03125 -1.53516,-4.01563 -2.10156,-5.94922 -1.69922,0.40234 -3.31641,0.5 -4.84766,0.30078 -1.5,-0.23437 -2.80078,-0.75 -3.90234,-1.550781 -0.33203,0.300781 -0.64844,0.601561 -0.94922,0.902341 -2.16406,2.26563 -3.86719,4.46485 -5.09766,6.59766 0.69922,0 1.39844,0.10156 2.09766,0.30078 1.40234,0.46484 2.48437,1.26563 3.25,2.39844 0.80078,1.13672 1.25,2.48437 1.35156,4.05078 0.0977,1.53516 -0.18359,3.11719 -0.85156,4.75 -0.4336,0.96875 -0.94922,1.83594 -1.55078,2.60156 2.36718,0.66406 5.23437,1 8.60156,1 0.46484,0 0.94922,-0.0156 1.44922,-0.0508 m 25.44922,-29.550781 c -1.29688,-0.398438 -2.59766,-0.53125 -3.89844,-0.398438 -1.26563,0.164063 -2.43359,0.582031 -3.5,1.25 -1.03516,0.632813 -1.83203,1.484375 -2.39844,2.550781 -0.5664,1.132813 -0.76953,2.265626 -0.60156,3.398438 0.19922,1.16797 0.69922,2.21484 1.5,3.14844 0.80078,0.90234 1.86719,1.60156 3.19922,2.10156 1.36719,0.46484 2.73437,0.61719 4.10156,0.44922 1.33203,-0.13281 2.53125,-0.56641 3.59766,-1.30078 1.0664,-0.69922 1.86718,-1.63281 2.40234,-2.79688 0.69922,-1.734372 0.63281,-3.386716 -0.19922,-4.953122 -0.83594,-1.566407 -2.23437,-2.714844 -4.20312,-3.449219 m -6.79688,-26.347657 c -1.16797,0.06641 -2.11719,0.265626 -2.85156,0.597657 -0.73438,0.335937 -1.08203,0.699219 -1.05078,1.101562 0.13281,0.433594 0.66797,0.765625 1.60156,1 0.93359,0.234375 2.05078,0.300781 3.34766,0.199219 1.26953,-0.101562 2.25,-0.316406 2.95312,-0.648438 0.73047,-0.335937 1.01563,-0.71875 0.84766,-1.152343 C 241.46484,66.800781 240.89844,66.5 240,66.300781 239.10156,66.066406 238.05078,66 236.85156,66.101562 m -26.80078,7.949219 c -1.06641,0.597657 -1.81641,1.214844 -2.25,1.847657 -0.40234,0.636718 -0.40234,1.136718 0,1.5 0.5,0.367187 1.28125,0.453124 2.34766,0.25 1.0664,-0.199219 2.18359,-0.613282 3.35156,-1.25 1.10156,-0.664063 1.85156,-1.316407 2.25,-1.949219 0.36719,-0.632813 0.30078,-1.117188 -0.19922,-1.449219 -0.53516,-0.300781 -1.31641,-0.351562 -2.35156,-0.148438 -1.03125,0.199219 -2.08203,0.597657 -3.14844,1.199219 m -23.75,34.398439 c -0.0664,1.26562 0.21484,2.19922 0.84766,2.80078 0.66797,0.63281 1.5664,0.76563 2.70312,0.39844 1.16406,-0.46485 2.16406,-1.29688 3,-2.5 0.83203,-1.16406 1.29688,-2.4336 1.39844,-3.79688 0.0664,-1.30078 -0.26563,-2.21875 -1,-2.75 -0.69922,-0.5664 -1.60156,-0.61718 -2.69922,-0.15234 -1.10156,0.46875 -2.03516,1.26562 -2.80078,2.40234 -0.80078,1.13282 -1.28516,2.33203 -1.44922,3.59766 m 7.89844,31.65234 c 0.86719,1.33203 1.94922,2.09766 3.25,2.29688 1.33594,0.23437 2.5664,-0.14844 3.69922,-1.14844 0.76953,-0.69922 1.3164,-1.55078 1.65234,-2.55078 0.33203,-0.96485 0.44922,-1.98438 0.34766,-3.05078 -0.0977,-1.06641 -0.44922,-2.04688 -1.04688,-2.94922 -0.90234,-1.30078 -2.01953,-2.03125 -3.35156,-2.19922 -1.30078,-0.13281 -2.51563,0.31641 -3.64844,1.35156 -1.03515,1.06641 -1.63672,2.38281 -1.80078,3.94922 -0.16797,1.53125 0.13281,2.96484 0.89844,4.30078 M 246.44922,163 c 1.76562,-0.30078 3.16797,-1.11719 4.19922,-2.44922 1.03515,-1.30078 1.46875,-2.81641 1.30078,-4.55078 -0.23438,-1.76563 -1.03125,-3.14844 -2.39844,-4.14844 -1.33594,-1 -2.91797,-1.38672 -4.75,-1.15234 -1.80078,0.30078 -3.23437,1.13281 -4.30078,2.5 -1.03516,1.33594 -1.44922,2.88281 -1.25,4.65234 0.30078,1.69922 1.13281,3.03125 2.5,4 1.33203,0.96485 2.89844,1.34766 4.69922,1.14844 m 35.60156,-16.85156 c 1.09766,-1.09766 1.75,-2.4336 1.94922,-4 0.16797,-1.56641 -0.14844,-3.01563 -0.94922,-4.34766 -0.86719,-1.33594 -1.98437,-2.10156 -3.35156,-2.30078 -1.33203,-0.19922 -2.59766,0.19922 -3.80078,1.19922 -0.79688,0.73437 -1.38282,1.60156 -1.75,2.60156 -0.33203,1 -0.44922,2.03125 -0.34766,3.09766 0.0977,1.0664 0.44922,2.05078 1.05078,2.95312 0.9336,1.29688 2.06641,2.01563 3.39844,2.14844 1.36719,0.16797 2.63281,-0.28516 3.80078,-1.35156 m 10.55078,-45 C 292.13281,99.949219 291.43359,98.898438 290.5,98 c -0.93359,-0.898438 -1.88281,-1.449219 -2.85156,-1.648438 -1,-0.136718 -1.6836,0.164063 -2.04688,0.898438 -0.40234,0.699219 -0.40234,1.683594 0,2.94922 0.46485,1.33594 1.19922,2.46875 2.19922,3.40234 0.96484,0.9336 1.96484,1.46485 3,1.59766 0.93359,0.0664 1.56641,-0.28125 1.89844,-1.05078 0.33594,-0.76563 0.30078,-1.76563 -0.0977,-3 M 275.80078,77.949219 c -0.93359,-0.734375 -1.91797,-1.300781 -2.94922,-1.699219 -1.0664,-0.398438 -1.95312,-0.535156 -2.65234,-0.398438 -0.69922,0.164063 -0.96485,0.566407 -0.80078,1.199219 0.16797,0.664063 0.71875,1.398438 1.65234,2.199219 1,0.800781 2.05078,1.398438 3.14844,1.800781 1.10156,0.398438 2,0.5 2.69922,0.300781 0.60156,-0.234374 0.80078,-0.667968 0.60156,-1.300781 -0.19922,-0.632812 -0.76563,-1.335937 -1.69922,-2.101562 M 219,127.05078 c -0.23438,-0.5664 -0.41797,-1.15234 -0.55078,-1.75 -0.63281,0.0312 -1.26563,0.0508 -1.89844,0.0508 -4.5,0 -8.19922,-0.61718 -11.10156,-1.85156 -1.13281,0.66797 -2.30078,1.08203 -3.5,1.25 -1.19922,0.16797 -2.34766,0.0156 -3.44922,-0.44922 -1.26563,-0.5664 -2.25,-1.43359 -2.94922,-2.60156 -0.69922,-1.16406 -1.06641,-2.48438 -1.10156,-3.94922 -0.0664,-1.5 0.23437,-3.01562 0.90234,-4.55078 0.59766,-1.30078 1.36328,-2.43359 2.29688,-3.39844 0.96875,-0.96875 2.01953,-1.68359 3.15234,-2.15234 1.36719,-2.89844 3.5,-5.81641 6.39844,-8.750002 0.36719,-0.398438 0.75,-0.765626 1.15234,-1.097657 -0.30078,-0.46875 -0.53515,-0.96875 -0.70312,-1.5 -0.5,-1.765625 -0.31641,-3.566406 0.55078,-5.402343 -2.09766,-0.398438 -4.13281,-0.714844 -6.09766,-0.949219 -0.80078,0.902343 -1.75,1.683593 -2.85156,2.351562 -1.53516,0.867188 -2.83203,1.234375 -3.89844,1.097657 -1.0664,-0.09766 -1.66797,-0.683594 -1.80078,-1.75 -0.0664,-1 0.33203,-2.097657 1.19922,-3.296876 0.86719,-1.234374 1.98437,-2.285156 3.35156,-3.152343 1.4336,-0.832031 2.69922,-1.234375 3.79688,-1.199219 1.10156,0.03516 1.76953,0.515625 2,1.449219 0.16797,0.699219 0.0352,1.5 -0.39844,2.402343 1.96484,0.230469 4,0.515626 6.10156,0.847657 1.33203,-1.632813 3.09766,-2.949219 5.29688,-3.949219 0.73437,-0.300781 1.45312,-0.550781 2.15234,-0.75 0.0664,-0.433594 0.14844,-0.851562 0.25,-1.25 0.56641,-2.300781 1.48438,-4.25 2.75,-5.851562 -0.46875,-0.5 -0.66797,-1.046876 -0.60156,-1.648438 0.0664,-0.632812 0.41797,-1.265625 1.05078,-1.898438 0.66797,-0.667968 1.55078,-1.25 2.64844,-1.75 1.10156,-0.5 2.28515,-0.851562 3.55078,-1.050781 1.23437,-0.234375 2.44922,-0.300781 3.65234,-0.199219 1.9336,0.230469 3.23047,0.78125 3.89844,1.648438 2.76562,0.332031 5.63281,1.25 8.60156,2.75 0.33203,0.167969 0.66406,0.351562 1,0.550781 0.36328,-0.132812 0.73047,-0.234375 1.09766,-0.300781 2.19922,-0.398438 4.40234,-0.316406 6.60156,0.25 0.69922,-1.199219 1.38281,-2.285156 2.05078,-3.25 -1.13672,-0.398438 -2.01953,-0.882812 -2.65234,-1.449219 -0.69922,-0.699219 -0.84766,-1.285156 -0.44922,-1.75 0.39844,-0.46875 1.25,-0.71875 2.55078,-0.75 1.30078,-0.03516 2.64844,0.164063 4.05078,0.597657 1.36328,0.402343 2.46485,0.917968 3.29688,1.550781 C 261.23437,70.898438 261.51562,71.5 261.25,72 c -0.30078,0.535156 -1.10156,0.832031 -2.39844,0.898438 -0.90234,0.06641 -1.85156,0 -2.85156,-0.199219 -0.60156,1.035156 -1.25,2.152343 -1.94922,3.351562 1.80078,0.765625 3.23438,1.816407 4.30078,3.148438 0.33203,0.402343 0.59766,0.785156 0.79688,1.152343 0.80078,0.09766 1.60156,0.214844 2.40234,0.347657 3.26563,0.566406 6.14844,1.417969 8.64844,2.550781 0.76562,-0.132812 1.65234,-0.117188 2.65234,0.05078 0.96485,0.199219 1.96485,0.582031 3,1.148438 1.89844,1.035156 3.39844,2.351562 4.5,3.949219 1.09766,1.566406 1.56641,3.050781 1.39844,4.453124 -0.26563,1.363282 -1.08203,2.230469 -2.44922,2.597657 -0.33594,2.367187 -1.56641,4.750002 -3.69922,7.152342 -0.40234,0.4336 -0.8164,0.86328 -1.25,1.29688 0.19922,0.33594 0.39844,0.68359 0.59766,1.05078 0.60156,1.19922 1,2.40234 1.19922,3.60156 0.20312,1.19922 0.20312,2.36719 0,3.5 2.5,1.30078 4.93359,2.63281 7.30078,4 0.46875,-1.16797 1.25,-1.96875 2.35156,-2.40234 1.30078,-0.46485 2.63281,-0.26563 4,0.60156 1.33203,0.83203 2.38281,2.14844 3.14844,3.94922 0.66797,1.80078 0.83594,3.5 0.5,5.10156 -0.36719,1.63281 -1.14844,2.78125 -2.34766,3.44922 -1.36719,0.63281 -2.75,0.55078 -4.15234,-0.25 -1.4336,-0.83203 -2.55078,-2.19922 -3.34766,-4.10156 -0.5,-1.23047 -0.73437,-2.44922 -0.70312,-3.64844 -2.46485,-1.36719 -5.01563,-2.73437 -7.64844,-4.10156 -0.93359,1.86719 -2.44922,3.25 -4.55078,4.15234 -0.39844,0.13281 -0.80078,0.25 -1.19922,0.34766 0.0664,0.93359 0.11719,1.85156 0.14844,2.75 0.0664,4.66797 -0.54688,8.68359 -1.84766,12.05078 0.46484,1.19922 0.69922,2.44922 0.69922,3.75 0.0352,1.30078 -0.19922,2.58594 -0.69922,3.85156 -0.69922,1.73438 -1.71875,3.13281 -3.05078,4.19922 -1.33203,1.06641 -2.83203,1.75 -4.5,2.05078 -1.66797,0.26563 -3.35156,0.082 -5.05078,-0.55078 -1.36719,-0.56641 -2.51563,-1.35156 -3.44922,-2.35156 -0.96484,-1.03125 -1.68359,-2.19922 -2.14844,-3.5 -3.36719,-1.39844 -6.76953,-3.6836 -10.20312,-6.84766 -0.66407,-0.63281 -1.33203,-1.28516 -2,-1.94922 -0.59766,0.4336 -1.26563,0.78125 -2,1.04688 -1.33203,0.5664 -2.69922,0.90234 -4.09766,1 -1.36719,0.10156 -2.71875,-0.0156 -4.05078,-0.34766 -1.23438,3.13281 -2.46484,6.26563 -3.69922,9.39844 1.26563,0.86719 2.23438,2.05078 2.89844,3.55078 0.5664,1.39844 0.78515,2.78516 0.65234,4.14844 -0.16797,1.40234 -0.65234,2.63672 -1.45312,3.70312 -0.79688,1.09766 -1.86328,1.91406 -3.19922,2.44922 -1.30078,0.5 -2.61719,0.63281 -3.94922,0.39844 -1.30078,-0.23438 -2.5,-0.76563 -3.60156,-1.59766 -1.06641,-0.83594 -1.89844,-1.91797 -2.5,-3.25 -0.56641,-1.36719 -0.78125,-2.73437 -0.64844,-4.10156 0.13281,-1.33203 0.56641,-2.55078 1.30078,-3.64844 0.76563,-1.10156 1.78125,-1.93359 3.05078,-2.5 1.4336,-0.60156 2.88281,-0.76953 4.34766,-0.5 1.19922,-3.10156 2.43359,-6.20312 3.69922,-9.30078 -1.16407,-0.66797 -2.1836,-1.5 -3.04688,-2.5 -0.90234,-1.03516 -1.60156,-2.19922 -2.10156,-3.5"
       id="path4" />
  </g>
</svg>
